<?xml version="1.0" standalone="no"?>
<!DOCTYPE svg PUBLIC "-//W3C//DTD SVG 20010904//EN"
 "http://www.w3.org/TR/2001/REC-SVG-20010904/DTD/svg10.dtd">
<svg version="1.0" xmlns="http://www.w3.org/2000/svg"
 width="360.000000pt" height="360.000000pt" viewBox="0 0 360.000000 360.000000"
 preserveAspectRatio="xMidYMid meet">
<metadata>
Created by potrace 1.11, written by Peter Selinger 2001-2013
</metadata>
<g transform="translate(0.000000,360.000000) scale(0.100000,-0.100000)"
fill="#000000" stroke="none">
<path d="M350 2355 l0 -65 73 0 72 0 112 -262 c61 -145 168 -396 237 -558
l125 -294 17 39 c9 22 113 267 231 545 118 278 217 511 220 518 4 8 31 12 89
12 l84 0 0 65 0 65 -205 0 -205 0 0 -70 0 -70 49 0 49 0 -33 -77 c-59 -138
-282 -667 -290 -688 -7 -19 -8 -18 -15 5 -4 14 -78 191 -164 394 -86 202 -156
370 -156 372 0 2 27 4 60 4 l60 0 0 65 0 65 -205 0 -205 0 0 -65z"/>
<path d="M1803 1910 c-62 -32 -88 -79 -88 -160 0 -102 35 -140 165 -181 85
-26 125 -51 146 -90 21 -41 13 -103 -17 -135 -46 -49 -148 -56 -217 -14 -28
18 -32 25 -32 65 l0 45 -40 0 -40 0 0 -59 c0 -57 2 -61 37 -90 80 -66 209 -84
296 -42 141 69 140 279 -2 350 -20 10 -65 28 -101 40 -73 24 -91 36 -108 68
-42 78 35 164 132 148 58 -10 76 -22 76 -50 0 -22 4 -25 36 -25 l35 0 -3 53
c-3 50 -5 53 -43 72 -61 30 -178 32 -232 5z"/>
<path d="M2985 1596 c-17 -7 -43 -28 -58 -45 l-27 -32 -6 40 -7 41 -63 0 -64
0 0 -35 c0 -32 2 -35 30 -35 l30 0 0 -110 0 -110 -35 0 c-34 0 -35 -1 -35 -40
l0 -40 105 0 105 0 0 40 c0 38 -2 40 -30 40 l-30 0 0 61 c0 35 7 75 16 95 20
43 90 79 134 69 48 -11 60 -38 60 -137 l0 -88 -40 0 -40 0 0 -40 0 -40 110 0
110 0 0 40 c0 38 -2 40 -30 40 l-30 0 0 116 0 116 -34 34 c-30 30 -40 34 -87
34 -30 -1 -68 -7 -84 -14z"/>
<path d="M2180 1565 c0 -32 2 -35 30 -35 l30 0 0 -105 c0 -67 5 -118 14 -139
16 -38 66 -66 118 -66 45 1 110 31 136 65 l22 28 0 -42 0 -41 70 0 70 0 0 35
c0 32 -2 35 -30 35 l-30 0 0 150 0 150 -70 0 -70 0 0 -35 c0 -32 2 -35 30 -35
l30 0 0 -74 c0 -59 -4 -78 -21 -100 -47 -60 -132 -75 -168 -30 -19 24 -21 40
-21 150 l0 124 -70 0 -70 0 0 -35z"/>
</g>
</svg>
